<?xml version="1.0" encoding="UTF-8"?>
<svg id="Layer_2" data-name="Layer 2" xmlns="http://www.w3.org/2000/svg" width="276.96" height="111.02" viewBox="0 0 276.96 111.02">
  <defs>
    <style>
      .cls-1 {
        fill: #fff;
      }
    </style>
  </defs>
  <g id="Layer_4" data-name="Layer 4">
    <g>
      <path class="cls-1" d="M4.5,50.24c3-6,7.08-10.61,12.25-13.85,5.17-3.23,10.94-4.85,17.31-4.85,5.45,0,10.22,1.11,14.33,3.32,4.11,2.21,7.27,5.12,9.49,8.72v-10.94h23.68v77.26h-23.68v-10.94c-2.31,3.6-5.52,6.51-9.62,8.72-4.11,2.21-8.88,3.32-14.33,3.32-6.28,0-12-1.64-17.17-4.92-5.17-3.27-9.26-7.94-12.25-13.98-3-6.04-4.5-13.04-4.5-20.98s1.5-14.91,4.5-20.91ZM52.96,57.3c-3.28-3.41-7.27-5.12-11.98-5.12s-8.7,1.69-11.98,5.06c-3.28,3.37-4.92,8.01-4.92,13.92s1.64,10.59,4.92,14.05c3.28,3.46,7.27,5.19,11.98,5.19s8.7-1.71,11.98-5.12c3.28-3.41,4.92-8.07,4.92-13.98s-1.64-10.57-4.92-13.98Z"/>
      <path class="cls-1" d="M132.17,91.91v-19.11l43.75-62.59h26.45v61.2h12.42v20.49h-12.42v18h-23.68v-18h-46.52ZM180.35,36.25l-23.26,35.17h23.26v-35.17Z"/>
      <path class="cls-1" d="M244.29,61.38l-24.67-24.67c-.77-.77-1.52-1.6-2.09-2.53-4.44-7.2-3.06-15.73,2.26-21.05,3.15-3.15,7.42-4.92,11.88-4.92s8.73,2.12,11.88,5.27c0,0,1.92,2.14,2.27,2.14s2.46-2.14,2.46-2.14c3.15-3.15,7.42-5.27,11.88-5.27s8.73,1.77,11.88,4.92c5.32,5.32,6.7,13.85,2.26,21.05-.57.93-1.32,1.76-2.09,2.53l-24.67,24.67c-.9.9-2.36.9-3.26,0Z"/>
      <g>
        <path class="cls-1" d="M119.24,32.65v77.26h-23.68V32.65h23.68Z"/>
        <path class="cls-1" d="M97.51,21.48c-2.57-2.39-3.86-5.35-3.86-8.88s1.29-6.62,3.86-9.01c2.57-2.39,5.9-3.59,9.96-3.59s7.25,1.2,9.83,3.59c2.57,2.39,3.86,5.4,3.86,9.01s-1.29,6.49-3.86,8.88c-2.57,2.39-5.85,3.59-9.83,3.59s-7.39-1.2-9.96-3.59Z"/>
      </g>
    </g>
  </g>
</svg>